<svg xmlns="http://www.w3.org/2000/svg" viewBox="0 0 156.94 185.63"><defs><style>.cls-1{fill:#fff;}</style></defs><title>Asset 7</title><g id="Layer_2" data-name="Layer 2"><g id="Layer_2-2" data-name="Layer 2"><path class="cls-1" d="M133.32,70a16,16,0,0,0-1.59-7.43,5.2,5.2,0,0,0-4.89-3.07,6,6,0,0,0-5.39,2.66,10.73,10.73,0,0,0-1.71,5.93,10.32,10.32,0,0,0,2.75,7.57,25.13,25.13,0,0,0,6.92,4.84q4.16,2.05,8.93,4.16a39.24,39.24,0,0,1,8.94,5.52,26.9,26.9,0,0,1,6.91,8.94q2.76,5.52,2.75,14.38,0,15.55-7.95,22.57t-23,7a54.74,54.74,0,0,1-12.55-1.29,21.39,21.39,0,0,1-9.18-4.5A20.34,20.34,0,0,1,98.57,129a36.59,36.59,0,0,1-1.95-12.82v-3.41h22V115c0,4.19.7,7.12,2.08,8.8a6.68,6.68,0,0,0,5.39,2.52,6.22,6.22,0,0,0,5.44-2.73,11.35,11.35,0,0,0,1.9-6.68,10.63,10.63,0,0,0-2.63-7.57,23.25,23.25,0,0,0-6.61-4.77q-4-2-8.63-4A36.79,36.79,0,0,1,107,95.27a25.51,25.51,0,0,1-6.61-8.59c-1.76-3.55-2.63-8.18-2.64-13.91q0-14.86,7.1-22.64t21.54-7.77q14.93,0,21.6,7.16t6.67,22.84h-21.3Z"/><path class="cls-1" d="M88.76,9.19s1.17,16-.38,21.15c0,0-2.45.48-2.45,4.83a1.26,1.26,0,0,0-1.16,1.31,1.07,1.07,0,0,0,1.16,1.15h1.92l0,4.38.1.23A50.54,50.54,0,0,0,60.28,53.69l0-.23-2.91-2.9L59,48.88s.36-.58-.4-1.34a1.11,1.11,0,0,0-1.58.07S54.69,44,51.2,45.47c0,0-3.51-1.44-15.21-15.21,0,0-4.46-7.5-8.76-3.2S31,36.32,31,36.32,43.08,46.77,45.65,51.54c0,0-1.39,2.08,1.69,5.15a1.26,1.26,0,0,0,.1,1.75,1.07,1.07,0,0,0,1.63,0l1.36-1.36,3.13,3.07.18,0A50.54,50.54,0,0,0,42.1,87.94H37.9V85.58s-.16-.67-1.23-.67-1.07,1.16-1.07,1.16-4.19-.88-5.63,2.61c0,0-3.5,1.46-21.51,0,0,0-8.46-2.15-8.46,3.93s9.19,3.91,9.19,3.91,16-1.18,21.15.38c0,0,.48,2.45,4.83,2.45a1.25,1.25,0,0,0,1.31,1.16,1.07,1.07,0,0,0,1.15-1.16V97.43l4.38,0,.06,0a50.59,50.59,0,0,0,11.45,27.84L50.73,128l-1.68-1.67s-.58-.36-1.34.4a1.11,1.11,0,0,0,.07,1.58s-3.59,2.33-2.14,5.82c0,0-1.44,3.51-15.21,15.21,0,0-7.5,4.47-3.2,8.77s9.26-3.73,9.26-3.73,10.45-12.12,15.22-14.69c0,0,2.08,1.39,5.15-1.69a1.26,1.26,0,0,0,1.75-.1,1.08,1.08,0,0,0,0-1.64l-1.36-1.35,2.95-3a50.52,50.52,0,0,0,27.45,11.5l0,.25,0,4.38H85.65a1.07,1.07,0,0,0-1.16,1.15,1.25,1.25,0,0,0,1.16,1.31c0,4.35,2.45,4.83,2.45,4.83,1.55,5.2.38,21.16.38,21.16s-2.18,9.18,3.9,9.18l.29-42V0C86.58,0,88.76,9.19,88.76,9.19Zm-26.42,60,11,11a23.24,23.24,0,0,0-3.14,7.35H54.58A38.28,38.28,0,0,1,62.34,69.2ZM54.51,97.45H70.05a22.91,22.91,0,0,0,3.21,7.85l-11,11A38.14,38.14,0,0,1,54.51,97.45ZM87.72,131a38.27,38.27,0,0,1-18.46-7.64l11-11a23.11,23.11,0,0,0,7.45,3.08Zm0-60.68a22.87,22.87,0,0,0-7.32,3l-11-11a38.23,38.23,0,0,1,18.35-7.55Z"/></g></g></svg>